<?xml version="1.0" encoding="UTF-8" standalone="no"?>
<!DOCTYPE svg PUBLIC "-//W3C//DTD SVG 1.1//EN"
 "http://www.w3.org/Graphics/SVG/1.1/DTD/svg11.dtd">
<!-- Generated by graphviz version 2.43.0 (0)
 -->
<!-- Title: Unix Pages: 1 -->
<svg width="1165pt" height="1052pt"
 viewBox="0.00 0.00 1165.00 1052.00" xmlns="http://www.w3.org/2000/svg" xmlns:xlink="http://www.w3.org/1999/xlink">
<g id="graph0" class="graph" transform="scale(1 1) rotate(0) translate(4 1048)">
<title>Unix</title>
<polygon fill="white" stroke="transparent" points="-4,4 -4,-1048 1161,-1048 1161,4 -4,4"/>
<!-- 1969 -->
<g id="node1" class="node">
<title>1969</title>
<text text-anchor="middle" x="32.5" y="-1019.8" font-family="Times,serif" font-size="24.00" fill="#888888">1969</text>
</g>
<!-- 1978 -->
<g id="node2" class="node">
<title>1978</title>
<text text-anchor="middle" x="32.5" y="-947.8" font-family="Times,serif" font-size="24.00" fill="#888888">1978</text>
</g>
<!-- 1969&#45;&gt;1978 -->
<g id="edge1" class="edge">
<title>1969&#45;&gt;1978</title>
<path fill="none" stroke="transparent" d="M32.5,-1007.7C32.5,-999.98 32.5,-990.71 32.5,-982.11"/>
<polygon fill="transparent" stroke="transparent" points="36,-982.1 32.5,-972.1 29,-982.1 36,-982.1"/>
</g>
<!-- 1979 -->
<g id="node3" class="node">
<title>1979</title>
<text text-anchor="middle" x="32.5" y="-875.8" font-family="Times,serif" font-size="24.00" fill="#888888">1979</text>
</g>
<!-- 1978&#45;&gt;1979 -->
<g id="edge2" class="edge">
<title>1978&#45;&gt;1979</title>
<path fill="none" stroke="transparent" d="M32.5,-935.7C32.5,-927.98 32.5,-918.71 32.5,-910.11"/>
<polygon fill="transparent" stroke="transparent" points="36,-910.1 32.5,-900.1 29,-910.1 36,-910.1"/>
</g>
<!-- 1981 -->
<g id="node4" class="node">
<title>1981</title>
<text text-anchor="middle" x="32.5" y="-803.8" font-family="Times,serif" font-size="24.00" fill="#888888">1981</text>
</g>
<!-- 1979&#45;&gt;1981 -->
<g id="edge3" class="edge">
<title>1979&#45;&gt;1981</title>
<path fill="none" stroke="transparent" d="M32.5,-863.7C32.5,-855.98 32.5,-846.71 32.5,-838.11"/>
<polygon fill="transparent" stroke="transparent" points="36,-838.1 32.5,-828.1 29,-838.1 36,-838.1"/>
</g>
<!-- 1983 -->
<g id="node5" class="node">
<title>1983</title>
<text text-anchor="middle" x="32.5" y="-731.8" font-family="Times,serif" font-size="24.00" fill="#888888">1983</text>
</g>
<!-- 1981&#45;&gt;1983 -->
<g id="edge4" class="edge">
<title>1981&#45;&gt;1983</title>
<path fill="none" stroke="transparent" d="M32.5,-791.7C32.5,-783.98 32.5,-774.71 32.5,-766.11"/>
<polygon fill="transparent" stroke="transparent" points="36,-766.1 32.5,-756.1 29,-766.1 36,-766.1"/>
</g>
<!-- 1984 -->
<g id="node6" class="node">
<title>1984</title>
<text text-anchor="middle" x="32.5" y="-659.8" font-family="Times,serif" font-size="24.00" fill="#888888">1984</text>
</g>
<!-- 1983&#45;&gt;1984 -->
<g id="edge5" class="edge">
<title>1983&#45;&gt;1984</title>
<path fill="none" stroke="transparent" d="M32.5,-719.7C32.5,-711.98 32.5,-702.71 32.5,-694.11"/>
<polygon fill="transparent" stroke="transparent" points="36,-694.1 32.5,-684.1 29,-694.1 36,-694.1"/>
</g>
<!-- 1986 -->
<g id="node7" class="node">
<title>1986</title>
<text text-anchor="middle" x="32.5" y="-587.8" font-family="Times,serif" font-size="24.00" fill="#888888">1986</text>
</g>
<!-- 1984&#45;&gt;1986 -->
<g id="edge6" class="edge">
<title>1984&#45;&gt;1986</title>
<path fill="none" stroke="transparent" d="M32.5,-647.7C32.5,-639.98 32.5,-630.71 32.5,-622.11"/>
<polygon fill="transparent" stroke="transparent" points="36,-622.1 32.5,-612.1 29,-622.1 36,-622.1"/>
</g>
<!-- 1987 -->
<g id="node8" class="node">
<title>1987</title>
<text text-anchor="middle" x="32.5" y="-515.8" font-family="Times,serif" font-size="24.00" fill="#888888">1987</text>
</g>
<!-- 1986&#45;&gt;1987 -->
<g id="edge7" class="edge">
<title>1986&#45;&gt;1987</title>
<path fill="none" stroke="transparent" d="M32.5,-575.7C32.5,-567.98 32.5,-558.71 32.5,-550.11"/>
<polygon fill="transparent" stroke="transparent" points="36,-550.1 32.5,-540.1 29,-550.1 36,-550.1"/>
</g>
<!-- 1989 -->
<g id="node9" class="node">
<title>1989</title>
<text text-anchor="middle" x="32.5" y="-443.8" font-family="Times,serif" font-size="24.00" fill="#888888">1989</text>
</g>
<!-- 1987&#45;&gt;1989 -->
<g id="edge8" class="edge">
<title>1987&#45;&gt;1989</title>
<path fill="none" stroke="transparent" d="M32.5,-503.7C32.5,-495.98 32.5,-486.71 32.5,-478.11"/>
<polygon fill="transparent" stroke="transparent" points="36,-478.1 32.5,-468.1 29,-478.1 36,-478.1"/>
</g>
<!-- 1992 -->
<g id="node10" class="node">
<title>1992</title>
<text text-anchor="middle" x="32.5" y="-371.8" font-family="Times,serif" font-size="24.00" fill="#888888">1992</text>
</g>
<!-- 1989&#45;&gt;1992 -->
<g id="edge9" class="edge">
<title>1989&#45;&gt;1992</title>
<path fill="none" stroke="transparent" d="M32.5,-431.7C32.5,-423.98 32.5,-414.71 32.5,-406.11"/>
<polygon fill="transparent" stroke="transparent" points="36,-406.1 32.5,-396.1 29,-406.1 36,-406.1"/>
</g>
<!-- 1995 -->
<g id="node11" class="node">
<title>1995</title>
<text text-anchor="middle" x="32.5" y="-299.8" font-family="Times,serif" font-size="24.00" fill="#888888">1995</text>
</g>
<!-- 1992&#45;&gt;1995 -->
<g id="edge10" class="edge">
<title>1992&#45;&gt;1995</title>
<path fill="none" stroke="transparent" d="M32.5,-359.7C32.5,-351.98 32.5,-342.71 32.5,-334.11"/>
<polygon fill="transparent" stroke="transparent" points="36,-334.1 32.5,-324.1 29,-334.1 36,-334.1"/>
</g>
<!-- 1997 -->
<g id="node12" class="node">
<title>1997</title>
<text text-anchor="middle" x="32.5" y="-227.8" font-family="Times,serif" font-size="24.00" fill="#888888">1997</text>
</g>
<!-- 1995&#45;&gt;1997 -->
<g id="edge11" class="edge">
<title>1995&#45;&gt;1997</title>
<path fill="none" stroke="transparent" d="M32.5,-287.7C32.5,-279.98 32.5,-270.71 32.5,-262.11"/>
<polygon fill="transparent" stroke="transparent" points="36,-262.1 32.5,-252.1 29,-262.1 36,-262.1"/>
</g>
<!-- 1998 -->
<g id="node13" class="node">
<title>1998</title>
<text text-anchor="middle" x="32.5" y="-155.8" font-family="Times,serif" font-size="24.00" fill="#888888">1998</text>
</g>
<!-- 1997&#45;&gt;1998 -->
<g id="edge12" class="edge">
<title>1997&#45;&gt;1998</title>
<path fill="none" stroke="transparent" d="M32.5,-215.7C32.5,-207.98 32.5,-198.71 32.5,-190.11"/>
<polygon fill="transparent" stroke="transparent" points="36,-190.1 32.5,-180.1 29,-190.1 36,-190.1"/>
</g>
<!-- 2002 -->
<g id="node14" class="node">
<title>2002</title>
<text text-anchor="middle" x="32.5" y="-83.8" font-family="Times,serif" font-size="24.00" fill="#888888">2002</text>
</g>
<!-- 1998&#45;&gt;2002 -->
<g id="edge13" class="edge">
<title>1998&#45;&gt;2002</title>
<path fill="none" stroke="transparent" d="M32.5,-143.7C32.5,-135.98 32.5,-126.71 32.5,-118.11"/>
<polygon fill="transparent" stroke="transparent" points="36,-118.1 32.5,-108.1 29,-118.1 36,-118.1"/>
</g>
<!-- 2005 -->
<g id="node15" class="node">
<title>2005</title>
<text text-anchor="middle" x="32.5" y="-11.8" font-family="Times,serif" font-size="24.00" fill="#888888">2005</text>
</g>
<!-- 2002&#45;&gt;2005 -->
<g id="edge14" class="edge">
<title>2002&#45;&gt;2005</title>
<path fill="none" stroke="transparent" d="M32.5,-71.7C32.5,-63.98 32.5,-54.71 32.5,-46.11"/>
<polygon fill="transparent" stroke="transparent" points="36,-46.1 32.5,-36.1 29,-46.1 36,-46.1"/>
</g>
<!-- minix_1 -->
<g id="node16" class="node">
<title>minix_1</title>
<text text-anchor="middle" x="138.5" y="-515.8" font-family="Times,serif" font-size="24.00">Minix 1.x</text>
</g>
<!-- minix_2 -->
<g id="node17" class="node">
<title>minix_2</title>
<text text-anchor="middle" x="138.5" y="-227.8" font-family="Times,serif" font-size="24.00">Minix 2.x</text>
</g>
<!-- minix_1&#45;&gt;minix_2 -->
<g id="edge15" class="edge">
<title>minix_1&#45;&gt;minix_2</title>
<path fill="none" stroke="black" stroke-width="2" d="M138.5,-503.97C138.5,-456.29 138.5,-321.18 138.5,-262.63"/>
<polygon fill="black" stroke="black" stroke-width="2" points="142,-262.31 138.5,-252.31 135,-262.31 142,-262.31"/>
</g>
<!-- minix_3 -->
<g id="node18" class="node">
<title>minix_3</title>
<text text-anchor="middle" x="138.5" y="-11.8" font-family="Times,serif" font-size="24.00">Minix 3.x</text>
</g>
<!-- minix_2&#45;&gt;minix_3 -->
<g id="edge16" class="edge">
<title>minix_2&#45;&gt;minix_3</title>
<path fill="none" stroke="black" stroke-width="2" d="M138.5,-215.85C138.5,-178.83 138.5,-91.18 138.5,-46.39"/>
<polygon fill="black" stroke="black" stroke-width="2" points="142,-46.23 138.5,-36.23 135,-46.23 142,-46.23"/>
</g>
<!-- v1 -->
<g id="node19" class="node">
<title>v1</title>
<text text-anchor="middle" x="835.5" y="-1019.8" font-family="Times,serif" font-size="24.00">V1</text>
</g>
<!-- v7 -->
<g id="node20" class="node">
<title>v7</title>
<text text-anchor="middle" x="835.5" y="-947.8" font-family="Times,serif" font-size="24.00">V7</text>
</g>
<!-- v1&#45;&gt;v7 -->
<g id="edge31" class="edge">
<title>v1&#45;&gt;v7</title>
<path fill="none" stroke="black" stroke-width="2" d="M835.5,-1007.7C835.5,-999.98 835.5,-990.71 835.5,-982.11"/>
<polygon fill="black" stroke="black" stroke-width="2" points="839,-982.1 835.5,-972.1 832,-982.1 839,-982.1"/>
</g>
<!-- system_iii -->
<g id="node22" class="node">
<title>system_iii</title>
<text text-anchor="middle" x="842.5" y="-803.8" font-family="Times,serif" font-size="24.00">System III</text>
</g>
<!-- v7&#45;&gt;system_iii -->
<g id="edge33" class="edge">
<title>v7&#45;&gt;system_iii</title>
<path fill="none" stroke="black" stroke-width="2" d="M816.46,-935.84C807.32,-926.3 797.33,-913.62 792.5,-900 787.15,-884.92 786.59,-878.87 792.5,-864 796.79,-853.2 804.44,-843.32 812.49,-835.1"/>
<polygon fill="black" stroke="black" stroke-width="2" points="815.08,-837.47 819.9,-828.04 810.25,-832.4 815.08,-837.47"/>
</g>
<!-- xenix -->
<g id="node24" class="node">
<title>xenix</title>
<text text-anchor="middle" x="897.5" y="-875.8" font-family="Times,serif" font-size="24.00">Xenix (Microsoft)</text>
</g>
<!-- v7&#45;&gt;xenix -->
<g id="edge35" class="edge">
<title>v7&#45;&gt;xenix</title>
<path fill="none" stroke="red" d="M850.83,-935.7C858.26,-927.3 867.32,-917.07 875.48,-907.86"/>
<polygon fill="red" stroke="red" points="878.34,-909.91 882.35,-900.1 873.1,-905.27 878.34,-909.91"/>
</g>
<!-- ultrix -->
<g id="node25" class="node">
<title>ultrix</title>
<text text-anchor="middle" x="1084.5" y="-875.8" font-family="Times,serif" font-size="24.00">Ultrix (DEC)</text>
</g>
<!-- v7&#45;&gt;ultrix -->
<g id="edge34" class="edge">
<title>v7&#45;&gt;ultrix</title>
<path fill="none" stroke="red" d="M862.62,-945.38C898.66,-935.24 963.65,-916.97 1014.01,-902.82"/>
<polygon fill="red" stroke="red" points="1015.2,-906.12 1023.88,-900.04 1013.3,-899.38 1015.2,-906.12"/>
</g>
<!-- bsd -->
<g id="node27" class="node">
<title>bsd</title>
<text text-anchor="middle" x="522.5" y="-875.8" font-family="Times,serif" font-size="24.00">BSD (Berkeley)</text>
</g>
<!-- v7&#45;&gt;bsd -->
<g id="edge32" class="edge">
<title>v7&#45;&gt;bsd</title>
<path fill="none" stroke="red" d="M808.27,-946.91C764.27,-937.07 675.72,-917.27 608.79,-902.3"/>
<polygon fill="red" stroke="red" points="609.18,-898.8 598.66,-900.03 607.66,-905.63 609.18,-898.8"/>
</g>
<!-- system_v -->
<g id="node21" class="node">
<title>system_v</title>
<text text-anchor="middle" x="675.5" y="-731.8" font-family="Times,serif" font-size="24.00">System V (AT&amp;T)</text>
</g>
<!-- system_v_r4 -->
<g id="node23" class="node">
<title>system_v_r4</title>
<text text-anchor="middle" x="313.5" y="-443.8" font-family="Times,serif" font-size="24.00">System V Release 4 (AT&amp;T)</text>
</g>
<!-- system_v&#45;&gt;system_v_r4 -->
<g id="edge28" class="edge">
<title>system_v&#45;&gt;system_v_r4</title>
<path fill="none" stroke="black" stroke-width="2" d="M591.58,-719.99C564.21,-711.93 534.67,-700.36 510.5,-684 467.5,-654.89 395.49,-543.25 361.5,-504 353.33,-494.56 344.17,-484.36 336.06,-475.46"/>
<polygon fill="black" stroke="black" stroke-width="2" points="338.59,-473.03 329.26,-468.01 333.42,-477.76 338.59,-473.03"/>
</g>
<!-- aix -->
<g id="node30" class="node">
<title>aix</title>
<text text-anchor="middle" x="767.5" y="-587.8" font-family="Times,serif" font-size="24.00">AIX (IBM)</text>
</g>
<!-- system_v&#45;&gt;aix -->
<g id="edge24" class="edge">
<title>system_v&#45;&gt;aix</title>
<path fill="none" stroke="red" d="M686.36,-719.89C697.77,-701.94 716.29,-672.92 732.5,-648 738.3,-639.08 744.7,-629.36 750.42,-620.7"/>
<polygon fill="red" stroke="red" points="753.49,-622.42 756.09,-612.15 747.65,-618.55 753.49,-622.42"/>
</g>
<!-- irix -->
<g id="node31" class="node">
<title>irix</title>
<text text-anchor="middle" x="583.5" y="-659.8" font-family="Times,serif" font-size="24.00">IRIX (SGI)</text>
</g>
<!-- system_v&#45;&gt;irix -->
<g id="edge25" class="edge">
<title>system_v&#45;&gt;irix</title>
<path fill="none" stroke="red" d="M652.76,-719.7C641.06,-710.8 626.64,-699.82 613.99,-690.2"/>
<polygon fill="red" stroke="red" points="616.06,-687.37 605.98,-684.1 611.82,-692.94 616.06,-687.37"/>
</g>
<!-- osf_1 -->
<g id="node34" class="node">
<title>osf_1</title>
<text text-anchor="middle" x="564.5" y="-371.8" font-family="Times,serif" font-size="24.00">OSF/1, aka Tru64 (DEC)</text>
</g>
<!-- system_v&#45;&gt;osf_1 -->
<g id="edge26" class="edge">
<title>system_v&#45;&gt;osf_1</title>
<path fill="none" stroke="red" d="M675.5,-719.95C675.5,-693.29 675.5,-640.11 675.5,-595 675.5,-595 675.5,-595 675.5,-521 675.5,-470.59 631.54,-427.39 598.95,-402.29"/>
<polygon fill="red" stroke="red" points="600.63,-399.18 590.52,-396 596.45,-404.79 600.63,-399.18"/>
</g>
<!-- system_iii&#45;&gt;system_v -->
<g id="edge23" class="edge">
<title>system_iii&#45;&gt;system_v</title>
<path fill="none" stroke="black" stroke-width="2" d="M801.65,-791.88C778.72,-782.26 749.92,-770.19 725.63,-760.01"/>
<polygon fill="black" stroke="black" stroke-width="2" points="726.8,-756.71 716.22,-756.07 724.09,-763.16 726.8,-756.71"/>
</g>
<!-- hp_ux -->
<g id="node26" class="node">
<title>hp_ux</title>
<text text-anchor="middle" x="878.5" y="-659.8" font-family="Times,serif" font-size="24.00">HP&#45;UX (Hewlett&#45;Packard)</text>
</g>
<!-- system_iii&#45;&gt;hp_ux -->
<g id="edge22" class="edge">
<title>system_iii&#45;&gt;hp_ux</title>
<path fill="none" stroke="red" d="M846.84,-791.87C853,-767.56 864.35,-722.82 871.65,-694.01"/>
<polygon fill="red" stroke="red" points="875.08,-694.74 874.14,-684.19 868.29,-693.02 875.08,-694.74"/>
</g>
<!-- unix_95 -->
<g id="node28" class="node">
<title>unix_95</title>
<text text-anchor="middle" x="408.5" y="-299.8" font-family="Times,serif" font-size="24.00">UNIX 95 (Open Group)</text>
</g>
<!-- system_v_r4&#45;&gt;unix_95 -->
<g id="edge27" class="edge">
<title>system_v_r4&#45;&gt;unix_95</title>
<path fill="none" stroke="black" stroke-width="2" d="M324.96,-431.87C341.51,-407.14 372.21,-361.24 391.43,-332.51"/>
<polygon fill="black" stroke="black" stroke-width="2" points="394.35,-334.45 397,-324.19 388.53,-330.55 394.35,-334.45"/>
</g>
<!-- bsd&#45;&gt;system_v_r4 -->
<g id="edge20" class="edge">
<title>bsd&#45;&gt;system_v_r4</title>
<path fill="none" stroke="black" d="M470.47,-863.84C418.88,-843.15 347.5,-802.97 347.5,-739 347.5,-739 347.5,-739 347.5,-593 347.5,-551.91 333.87,-505.92 323.87,-477.72"/>
<polygon fill="black" stroke="black" points="327.1,-476.36 320.38,-468.17 320.53,-478.76 327.1,-476.36"/>
</g>
<!-- solaris -->
<g id="node33" class="node">
<title>solaris</title>
<text text-anchor="middle" x="623.5" y="-803.8" font-family="Times,serif" font-size="24.00">Solaris (Sun Microsystems)</text>
</g>
<!-- bsd&#45;&gt;solaris -->
<g id="edge19" class="edge">
<title>bsd&#45;&gt;solaris</title>
<path fill="none" stroke="red" d="M547.21,-863.88C560.17,-854.89 576.23,-843.76 590.27,-834.03"/>
<polygon fill="red" stroke="red" points="592.47,-836.76 598.7,-828.19 588.48,-831.01 592.47,-836.76"/>
</g>
<!-- bsd&#45;&gt;osf_1 -->
<g id="edge18" class="edge">
<title>bsd&#45;&gt;osf_1</title>
<path fill="none" stroke="red" d="M501.64,-863.87C491.36,-854.34 479.67,-841.67 472.5,-828 453.7,-792.19 453.5,-779.45 453.5,-739 453.5,-739 453.5,-739 453.5,-593 453.5,-517.32 508.88,-441.78 541.41,-403.95"/>
<polygon fill="red" stroke="red" points="544.39,-405.85 548.36,-396.02 539.13,-401.23 544.39,-405.85"/>
</g>
<!-- unix_98 -->
<g id="node29" class="node">
<title>unix_98</title>
<text text-anchor="middle" x="408.5" y="-155.8" font-family="Times,serif" font-size="24.00">UNIX 98 (Open Group)</text>
</g>
<!-- unix_95&#45;&gt;unix_98 -->
<g id="edge29" class="edge">
<title>unix_95&#45;&gt;unix_98</title>
<path fill="none" stroke="black" stroke-width="2" d="M408.5,-287.87C408.5,-263.67 408.5,-219.21 408.5,-190.39"/>
<polygon fill="black" stroke="black" stroke-width="2" points="412,-190.19 408.5,-180.19 405,-190.19 412,-190.19"/>
</g>
<!-- iso_9945_2002 -->
<g id="node32" class="node">
<title>iso_9945_2002</title>
<text text-anchor="middle" x="408.5" y="-83.8" font-family="Times,serif" font-size="24.00">ISO 9945:2002</text>
</g>
<!-- unix_98&#45;&gt;iso_9945_2002 -->
<g id="edge30" class="edge">
<title>unix_98&#45;&gt;iso_9945_2002</title>
<path fill="none" stroke="black" stroke-width="2" d="M408.5,-143.7C408.5,-135.98 408.5,-126.71 408.5,-118.11"/>
<polygon fill="black" stroke="black" stroke-width="2" points="412,-118.1 408.5,-108.1 405,-118.1 412,-118.1"/>
</g>
<!-- aix&#45;&gt;osf_1 -->
<g id="edge17" class="edge">
<title>aix&#45;&gt;osf_1</title>
<path fill="none" stroke="red" d="M763.41,-575.55C754.98,-543.11 732.71,-473.1 689.5,-432 674.96,-418.17 656.27,-407.68 637.8,-399.84"/>
<polygon fill="red" stroke="red" points="639.06,-396.57 628.48,-396.08 636.44,-403.06 639.06,-396.57"/>
</g>
<!-- osf_1&#45;&gt;unix_95 -->
<g id="edge21" class="edge">
<title>osf_1&#45;&gt;unix_95</title>
<path fill="none" stroke="black" d="M526.34,-359.88C505.11,-350.35 478.49,-338.41 455.93,-328.28"/>
<polygon fill="black" stroke="black" points="457.09,-324.97 446.54,-324.07 454.23,-331.36 457.09,-324.97"/>
</g>
</g>
</svg>
